<svg xmlns="http://www.w3.org/2000/svg" width="800" height="327.034" version="1.0" viewBox="0 0 599.99998 245.2755"><g style="stroke-width:8.07662;fill:#fff"><path d="M70 19800c-18-5-39-15-45-24-9-11-14-309-18-1067C-2 17339-2 1406 7 632l6-594 26-16C62 6 142 5 980 5c698 0 920 3 936 12 14 8 23 26 28 55 3 24 9 3912 13 8641 3 4728 8 8597 10 8597 5 0 223-160 863-634 245-181 519-384 609-450 90-67 174-130 187-141l24-20 9-8005c5-4403 12-8013 16-8022 4-10 23-21 43-25 49-10 1786-10 1834 0 29 6 40 14 45 35 5 15 8 4456 8 9869v9842l-23 23-23 23H3711l-23-23-23-23-6-619c-3-341-7-622-10-624-2-2-33 17-69 43-108 79-807 597-1262 934l-428 317-892-1c-491-1-909-5-928-9zM19786 19801c-27-4-54-15-61-24-9-12-13-372-18-1539-8-1832-7-14135 2-16505l6-1682 23-23 23-23 916-3c846-2 918-1 942 14 14 10 130 94 256 188 1920 1421 2335 1726 2353 1726 15 0 638-458 2326-1709l300-221 928 2c874 3 928 4 945 21 15 15 19 42 24 175 6 165 7 19184 1 19430-3 141-3 142-30 160-24 16-88 17-922 17-492 0-912-4-933-8-28-6-41-15-49-35s-12-2365-16-8650c-4-7088-7-8622-17-8618-12 4-173 122-510 371-60 45-180 133-265 196s-298 220-472 349l-318 235v7686c0 4227-3 7856-7 8063l-6 378-26 16c-23 16-103 17-931 17-498 0-917-3-932-8-15-4-33-17-40-30-9-17-13-1803-16-8064l-5-8043-430-317c-450-332-570-421-936-690-120-90-221-163-224-163-2 0-6 3883-10 8629-3 6074-8 8635-16 8649-6 11-18 24-28 28-21 11-1756 15-1827 5zM33039 19784l-24-26V52l24-26 24-26h5434l21 23 22 23v1721l-23 21-23 22h-3537l6 962c4 529 7 2146 7 3595v2633h2727l21 23 22 23v1721l-23 21-23 22h-2724v2633c0 1449-3 3066-7 3595l-6 962h3540l21 23 22 23v1721l-23 21-23 22h-5431zM42890 19800c-18-5-39-16-46-24-19-27-26-3738-23-12066 3-6185 6-7649 17-7667 7-13 25-26 40-30 35-10 1809-10 1844 0 15 4 32 16 38 27 7 13 12 1496 17 4720l6 4700h763l551-543 551-542 1-4166 1-4166 23-21 23-22h1721l21 23 22 23v9001l-655 648-655 647 655 662 654 661 1 4051v4051l-23 21-23 22-2745-1c-1509-1-2760-5-2779-9zm3760-4635v-2835l-522-530-523-530h-825v2403c0 1322-3 2836-7 3365l-6 962h1883zM9922 19777l-22-23V9033l24-22 25-23 1805 7 1806 8V1810h-1860v3107l-23 21-23 22H9933l-21-23-22-23V43l23-21 23-22h5391l21 23 22 23v10591l-23 21-23 22h-3614v7310h1850v-3107l23-21 23-22h1721l21 23 22 23v4871l-23 21-23 22H9943Z" style="stroke-width:8.07662;fill:#fff" transform="matrix(.01238 0 0 -.01238 .022 245.275)"/></g></svg>